<?xml version="1.0" encoding="UTF-8"?>
<svg width="107px" height="107px" viewBox="0 0 107 107" version="1.1" xmlns="http://www.w3.org/2000/svg" xmlns:xlink="http://www.w3.org/1999/xlink">
    <!-- Generator: Sketch 52.5 (67469) - http://www.bohemiancoding.com/sketch -->
    <title>Remek Logo</title>
    <desc>Created with Sketch.</desc>
    <defs>
        <path d="M66.3569,12.8984 L53.7946,0.3361 L0.774,53.3568 L13.3363,65.9191 L39.8468,39.4089 L39.8471,39.4092 C47.5559,31.7003 60.0544,31.7003 67.7638,39.4092 C71.6869,43.3323 73.6122,48.4965 73.5419,53.6382 L88.3762,38.804 C86.674,34.7595 84.2322,30.9517 81.0483,27.5901 L79.5823,26.1243 C74.606,21.4106 68.6533,18.3228 62.3986,16.8567 L66.3569,12.8984 Z M19.2346,67.9308 C20.9366,71.9753 23.3783,75.7831 26.5622,79.1444 L28.028,80.6105 C33.0045,85.3242 38.9567,88.4117 45.2113,89.8778 L41.2533,93.8358 L53.8159,106.3981 L80.3261,79.8882 L106.836,53.378 L94.2737,40.8154 L67.7638,67.3259 C60.0544,75.0347 47.5559,75.0347 39.8471,67.3259 C35.9233,63.4022 33.9986,58.2386 34.0686,53.0965 L19.2346,67.9308 Z" id="path-1"></path>
        <radialGradient cx="0%" cy="0%" fx="0%" fy="0%" r="140.999934%" id="radialGradient-3">
            <stop stop-color="#AFCA1F" offset="0%"></stop>
            <stop stop-color="#404D1D" offset="100%"></stop>
        </radialGradient>
        <path d="M11.2947,64.8774 C25.9421,79.5243 49.6891,79.5243 64.3363,64.8774 C73.8613,55.3522 77.1891,41.9797 74.3261,29.763 L51.7638,52.3259 C44.0544,60.0347 31.5559,60.0347 23.8471,52.3259 C19.9233,48.4022 17.9986,43.2386 18.0686,38.0965 L3.2449,52.92 C5.0735,57.2655 7.7553,61.3375 11.2947,64.8774 Z M1.3048,46.9506 L23.8468,24.4089 L23.8471,24.4092 C31.5559,16.7003 44.0544,16.7003 51.7638,24.4092 C55.6869,28.3323 57.6122,33.4965 57.5419,38.6382 L72.3762,23.804 C70.674,19.7595 68.2322,15.9517 65.0483,12.5901 L63.5823,11.1243 C58.606,6.4106 52.6533,3.3228 46.3986,1.8567 L46.41,1.846 C34.1929,-1.0173 20.8199,2.3108 11.2947,11.8358 C1.77,21.3608 -1.5587,34.7338 1.3048,46.9506 Z" id="path-4"></path>
        <radialGradient cx="99.9996813%" cy="99.9999%" fx="99.9996813%" fy="99.9999%" r="141.004695%" gradientTransform="translate(0.999997,0.999999),scale(1.000000,0.999969),translate(-0.999997,-0.999999)" id="radialGradient-6">
            <stop stop-color="#AFCA1F" offset="0%"></stop>
            <stop stop-color="#404D1D" offset="100%"></stop>
        </radialGradient>
        <path d="M4.8014,24.371 C10.3261,29.8957 19.2842,29.8957 24.8089,24.371 C30.3336,18.8463 30.3336,9.8882 24.8089,4.3635 C19.2842,-1.1612 10.3261,-1.1612 4.8014,4.3635 C-0.7233,9.8882 -0.7233,18.8463 4.8014,24.371" id="path-7"></path>
        <radialGradient cx="-0.000618493667%" cy="-0.000618493668%" fx="-0.000618493667%" fy="-0.000618493668%" r="141.00299%" id="radialGradient-9">
            <stop stop-color="#404D1D" offset="0%"></stop>
            <stop stop-color="#AFCA1F" offset="100%"></stop>
        </radialGradient>
    </defs>
    <g id="Page-1" stroke="none" stroke-width="1" fill="none" fill-rule="evenodd">
        <g id="Remek-Logo">
            <g id="Group-3">
                <mask id="mask-2" fill="white">
                    <use xlink:href="#path-1"></use>
                </mask>
                <g id="Clip-2"></g>
                <path d="M66.3569,12.8984 L53.7946,0.3361 L0.774,53.3568 L13.3363,65.9191 L39.8468,39.4089 L39.8471,39.4092 C47.5559,31.7003 60.0544,31.7003 67.7638,39.4092 C71.6869,43.3323 73.6122,48.4965 73.5419,53.6382 L88.3762,38.804 C86.674,34.7595 84.2322,30.9517 81.0483,27.5901 L79.5823,26.1243 C74.606,21.4106 68.6533,18.3228 62.3986,16.8567 L66.3569,12.8984 Z M19.2346,67.9308 C20.9366,71.9753 23.3783,75.7831 26.5622,79.1444 L28.028,80.6105 C33.0045,85.3242 38.9567,88.4117 45.2113,89.8778 L41.2533,93.8358 L53.8159,106.3981 L80.3261,79.8882 L106.836,53.378 L94.2737,40.8154 L67.7638,67.3259 C60.0544,75.0347 47.5559,75.0347 39.8471,67.3259 C35.9233,63.4022 33.9986,58.2386 34.0686,53.0965 L19.2346,67.9308 Z" id="Fill-1" fill="url(#radialGradient-3)" mask="url(#mask-2)"></path>
            </g>
            <g id="Group-6" transform="translate(16.000000, 15.000000)">
                <mask id="mask-5" fill="white">
                    <use xlink:href="#path-4"></use>
                </mask>
                <g id="Clip-5"></g>
                <path d="M11.2947,64.8774 C25.9421,79.5243 49.6891,79.5243 64.3363,64.8774 C73.8613,55.3522 77.1891,41.9797 74.3261,29.763 L51.7638,52.3259 C44.0544,60.0347 31.5559,60.0347 23.8471,52.3259 C19.9233,48.4022 17.9986,43.2386 18.0686,38.0965 L3.2449,52.92 C5.0735,57.2655 7.7553,61.3375 11.2947,64.8774 Z M1.3048,46.9506 L23.8468,24.4089 L23.8471,24.4092 C31.5559,16.7003 44.0544,16.7003 51.7638,24.4092 C55.6869,28.3323 57.6122,33.4965 57.5419,38.6382 L72.3762,23.804 C70.674,19.7595 68.2322,15.9517 65.0483,12.5901 L63.5823,11.1243 C58.606,6.4106 52.6533,3.3228 46.3986,1.8567 L46.41,1.846 C34.1929,-1.0173 20.8199,2.3108 11.2947,11.8358 C1.77,21.3608 -1.5587,34.7338 1.3048,46.9506 Z" id="Fill-4" fill="url(#radialGradient-6)" mask="url(#mask-5)"></path>
            </g>
            <g id="Group-9" transform="translate(39.000000, 39.000000)">
                <mask id="mask-8" fill="white">
                    <use xlink:href="#path-7"></use>
                </mask>
                <g id="Clip-8"></g>
                <path d="M4.8014,24.371 C10.3261,29.8957 19.2842,29.8957 24.8089,24.371 C30.3336,18.8463 30.3336,9.8882 24.8089,4.3635 C19.2842,-1.1612 10.3261,-1.1612 4.8014,4.3635 C-0.7233,9.8882 -0.7233,18.8463 4.8014,24.371" id="Fill-7" fill="url(#radialGradient-9)" mask="url(#mask-8)"></path>
            </g>
        </g>
    </g>
</svg>
